/* XPM */
static char * warn_released_xpm[] = {
"27 36 4 1",
" 	c None",
".	c #E67D7D",
"+	c #591A1A",
"@	c #BF4040",
"                           ",
"                           ",
"                           ",
"                           ",
"                           ",
"                           ",
"                           ",
"                           ",
"                           ",
"...........................",
"..........................+",
".........................++",
"...@@@@@@@@@@@@@@@@@@@@@+++",
"...@@@@@@@@@@@@@@@@@@@@@+++",
"...@@@@@@@@@@@@@@@@@@@@@+++",
"...@@@@@@@@@@@@@@@@@@@@@+++",
"...@@@@@@@@@@@@@@@@@@@@@+++",
"...@@@@@@@@@@@@@@@@@@@@@+++",
"...@@@@@@@@@@@@@@@@@@@@@+++",
"...@@@@@@@@@@@@@@@@@@@@@+++",
"...@@@@@@@@@@@@@@@@@@@@@+++",
"...@@@@@@@@@@@@@@@@@@@@@+++",
"...@@@@@@@@@@@@@@@@@@@@@+++",
"...@@@@@@@@@@@@@@@@@@@@@+++",
"...@@@@@@@@@@@@@@@@@@@@@+++",
"...@@@@@@@@@@@@@@@@@@@@@+++",
"...@@@@@@@@@@@@@@@@@@@@@+++",
"...@@@@@@@@@@@@@@@@@@@@@+++",
"...@@@@@@@@@@@@@@@@@@@@@+++",
"...@@@@@@@@@@@@@@@@@@@@@+++",
"...@@@@@@@@@@@@@@@@@@@@@+++",
"...@@@@@@@@@@@@@@@@@@@@@+++",
"...@@@@@@@@@@@@@@@@@@@@@+++",
"..+++++++++++++++++++++++++",
".++++++++++++++++++++++++++",
"+++++++++++++++++++++++++++"};
