/* XPM */
static char * top_left_active_xpm[] = {
"36 36 4 1",
" 	c None",
".	c #808080",
"+	c #404040",
"@	c #606060",
"....................................",
"................................+...",
"...............................++...",
"...@@@@@@@@@@@@@@@@@@@@@@@@@@@+++...",
"...@@@@@@@@@@@@@@@@@@@@@@@@@@@+++...",
"...@@@@@@@@@@@@@@@@@@@@@@@@@@@+++...",
"...@@@+++++++++++++++++++++++++++..+",
"...@@@+++++++++++++++++++++++++++.++",
"...@@@++++++++++++++++++++++++++++++",
"...@@@+++                           ",
"...@@@+++                           ",
"...@@@+++                           ",
"...@@@+++                           ",
"...@@@+++                           ",
"...@@@+++                           ",
"...@@@+++                           ",
"...@@@+++                           ",
"...@@@+++                           ",
"...@@@+++                           ",
"...@@@+++                           ",
"...@@@+++                           ",
"...@@@+++                           ",
"...@@@+++                           ",
"...@@@+++                           ",
"...@@@+++                           ",
"...@@@+++                           ",
"...@@@+++                           ",
"...@@@+++                           ",
"...@@@+++                           ",
"...@@@+++                           ",
"..+++++++                           ",
".++++++++                           ",
"+++++++++                           ",
".........                           ",
"........+                           ",
".......++                           "};
