/* XPM */
static char * released_xpm[] = {
"28 37 4 1",
" 	c None",
".	c #808080",
"+	c #404040",
"@	c #606060",
"                            ",
"                            ",
"                            ",
"                            ",
"                            ",
"                            ",
"                            ",
"                            ",
"                            ",
"............................",
"...........................+",
"..........................++",
"...@@@@@@@@@@@@@@@@@@@@@@+++",
"...@@@@@@@@@@@@@@@@@@@@@@+++",
"...@@@@@@@@@@@@@@@@@@@@@@+++",
"...@@@@@@@@@@@@@@@@@@@@@@+++",
"...@@@@@@@@@@@@@@@@@@@@@@+++",
"...@@@@@@@@@@@@@@@@@@@@@@+++",
"...@@@@@@@@@@@@@@@@@@@@@@+++",
"...@@@@@@@@@@@@@@@@@@@@@@+++",
"...@@@@@@@@@@@@@@@@@@@@@@+++",
"...@@@@@@@@@@@@@@@@@@@@@@+++",
"...@@@@@@@@@@@@@@@@@@@@@@+++",
"...@@@@@@@@@@@@@@@@@@@@@@+++",
"...@@@@@@@@@@@@@@@@@@@@@@+++",
"...@@@@@@@@@@@@@@@@@@@@@@+++",
"...@@@@@@@@@@@@@@@@@@@@@@+++",
"...@@@@@@@@@@@@@@@@@@@@@@+++",
"...@@@@@@@@@@@@@@@@@@@@@@+++",
"...@@@@@@@@@@@@@@@@@@@@@@+++",
"...@@@@@@@@@@@@@@@@@@@@@@+++",
"...@@@@@@@@@@@@@@@@@@@@@@+++",
"...@@@@@@@@@@@@@@@@@@@@@@+++",
"...@@@@@@@@@@@@@@@@@@@@@@+++",
"..++++++++++++++++++++++++++",
".+++++++++++++++++++++++++++",
"++++++++++++++++++++++++++++"};
