/* XPM */
static char * bottom_xpm[] = {
"1 9 4 1",
" 	c None",
".	c #808080",
"+	c #606060",
"@	c #404040",
".",
".",
".",
"+",
"+",
"+",
"@",
"@",
"@"};
