/* XPM */
static char * sides_xpm[] = {
"9 1 4 1",
" 	c None",
".	c #808080",
"+	c #606060",
"@	c #404040",
"...+++@@@"};
