/* XPM */
static char * title_2_active_xpm[] = {
"3 36 5 1",
" 	c None",
".	c #808080",
"+	c #606060",
"@	c #404040",
"#	c #303030",
"...",
"...",
"...",
"+++",
"+++",
"+++",
"@@@",
"@@@",
"@@@",
"@@@",
"@@@",
"@@@",
"@@@",
"@@@",
"@@@",
"@@@",
"@@@",
"@@@",
"@@@",
"@@@",
"@@@",
"@@@",
"@@@",
"@@@",
"@@@",
"@@@",
"@@@",
"@@@",
"@@@",
"@@@",
"@@@",
"@@@",
"@@@",
"@@#",
"@##",
"###"};
