/* XPM */
static char * title_1_active_xpm[] = {
"1 36 4 1",
" 	c None",
".	c #808080",
"+	c #606060",
"@	c #404040",
".",
".",
".",
"+",
"+",
"+",
"@",
"@",
"@",
" ",
" ",
" ",
" ",
" ",
" ",
" ",
" ",
" ",
" ",
" ",
" ",
" ",
" ",
" ",
" ",
" ",
" ",
" ",
" ",
" ",
" ",
" ",
" ",
" ",
" ",
" "};
