/* XPM */
static char * title_2_inactive_xpm[] = {
"3 36 4 1",
" 	c None",
".	c #808080",
"+	c #606060",
"@	c #404040",
"...",
"...",
"...",
"+++",
"+++",
"+++",
"@@@",
"@@@",
"@@@",
"...",
"...",
"...",
"...",
"...",
"...",
"...",
"...",
"...",
"...",
"...",
"...",
"...",
"...",
"...",
"...",
"...",
"...",
"...",
"...",
"...",
"...",
"...",
"...",
"..@",
".@@",
"@@@"};
