/* XPM */
static char * title_3_inactive_xpm[] = {
"1 36 4 1",
" 	c None",
".	c #808080",
"+	c #606060",
"@	c #404040",
".",
".",
".",
"+",
"+",
"+",
"@",
"@",
"@",
".",
".",
".",
"+",
"+",
"+",
"+",
"+",
"+",
"+",
"+",
"+",
"+",
"+",
"+",
"+",
"+",
"+",
"+",
"+",
"+",
"+",
"+",
"+",
"@",
"@",
"@"};
