/* XPM */
static char * title_3_active_xpm[] = {
"1 36 6 1",
" 	c None",
".	c #808080",
"+	c #606060",
"@	c #404040",
"#	c #505050",
"$	c #303030",
".",
".",
".",
"+",
"+",
"+",
"@",
"@",
"@",
"@",
"@",
"@",
"#",
"#",
"#",
"#",
"#",
"#",
"#",
"#",
"#",
"#",
"#",
"#",
"#",
"#",
"#",
"#",
"#",
"#",
"#",
"#",
"#",
"$",
"$",
"$"};
